<svg version="1" xmlns="http://www.w3.org/2000/svg" width="682.667" height="682.667" viewBox="0 0 512.000000 512.000000" preserveAspectRatio="xMidYMid meet"><metadata>Created by potrace 1.11, written by Peter Selinger 2001-2013</metadata><g fill="#000" stroke="none"><path d="M0 4739 l0 -381 67 -97 c36 -53 316 -457 620 -899 l554 -803 -332 -482 c-183 -265 -383 -554 -444 -642 -61 -88 -191 -275 -288 -416 l-177 -257 0 -381 0 -381 254 0 255 0 63 93 c171 247 747 1082 938 1360 118 172 222 323 231 335 16 22 21 16 244 -308 125 -181 229 -330 231 -330 1 0 140 159 307 353 167 193 315 364 328 379 l24 27 68 -79 c37 -44 72 -80 77 -80 5 0 28 25 51 55 23 30 45 55 50 55 7 0 525 -658 1013 -1287 l111 -143 223 0 222 0 0 408 0 407 -510 653 c-280 359 -510 657 -510 663 0 5 80 112 177 237 280 358 703 899 776 992 l67 84 0 408 0 408 -222 -1 -223 0 -180 -231 c-99 -127 -247 -317 -329 -422 -82 -105 -244 -312 -360 -461 -115 -148 -220 -282 -232 -297 l-22 -27 -49 64 c-26 35 -50 64 -53 64 -3 0 -37 -38 -77 -84 l-72 -84 -203 236 c-217 253 -364 424 -419 486 l-34 39 -86 -124 c-47 -67 -150 -217 -228 -331 l-143 -208 -181 263 c-100 145 -380 551 -623 903 l-441 640 -257 3 -256 2 0 -381z m2305 -2179 c0 -7 -6 -15 -12 -17 -8 -3 -13 4 -13 17 0 13 5 20 13 18 6 -3 12 -11 12 -18z" transform="translate(0.000000,512.000000) scale(0.100000,-0.100000)"/></g></svg>